# xmcd
#
# Track frame offsets: 
#        150
#        12025
#        30689
#        47153
#        67838
#        82000
#        100224
#        115383
#        135866
#        155809
#        174418
#        192948
#        227911
#
# Disc length: 3209 seconds
#
# Revision: 0
# Processed by: cddbd v1.5.2PL0 Copyright (c) Steve Scherf et al.
# Submitted via: ExactAudioCopyFreeDBPlugin 1.0
#
DISCID=a30c870d
DTITLE=Eduardo Paillacan - Plegaria de la Guitarra
DYEAR=1992
DGENRE=Blues
TTITLE0=La sacatrago
TTITLE1=Digo de mi barrio
TTITLE2=Milonga de Jaun Petiso
TTITLE3=Cazando jabali
TTITLE4=Soy calafate
TTITLE5=Cueca chueca
TTITLE6=Con el viento y la milonga
TTITLE7=Corazon de identidad
TTITLE8=Lo que es quererte
TTITLE9=Rogativa de dona Cayupan
TTITLE10=Cancion al canto de mi tierra
TTITLE11=Plegaria de la Guitarra
TTITLE12=Canto
EXTD=
EXTT0=
EXTT1=
EXTT2=
EXTT3=
EXTT4=
EXTT5=
EXTT6=
EXTT7=
EXTT8=
EXTT9=
EXTT10=
EXTT11=
EXTT12=
PLAYORDER=
